<?xml version="1.0" encoding="utf-8"?>
<!-- Generator: Adobe Illustrator 16.0.0, SVG Export Plug-In . SVG Version: 6.00 Build 0)  -->
<!DOCTYPE svg PUBLIC "-//W3C//DTD SVG 1.1//EN" "http://www.w3.org/Graphics/SVG/1.1/DTD/svg11.dtd">
<svg version="1.1" id="レイヤー_1" xmlns="http://www.w3.org/2000/svg" xmlns:xlink="http://www.w3.org/1999/xlink" x="0px"
	 y="0px" width="530.53px" height="80.83px" viewBox="0 0 530.53 80.83" enable-background="new 0 0 530.53 80.83"
	 xml:space="preserve">
<g>
	<g>
		<path fill="#6F42C1" d="M68.437,27.234c0,3.25-0.761,6.109-2.281,8.578s-3.729,4.38-6.625,5.734
			c-2.896,1.354-6.354,2.031-10.375,2.031h-6.563l-3.406,16.188h-7.781l9.5-44.813h13.5c4.375,0,7.808,1.083,10.297,3.25
			C67.191,20.37,68.437,23.38,68.437,27.234z M60.343,27.796c0-2-0.677-3.599-2.031-4.797c-1.354-1.198-3.323-1.797-5.906-1.797
			h-5.031L43.937,37.39h5.469c3.417,0,6.094-0.844,8.031-2.531S60.343,30.817,60.343,27.796z"/>
		<path fill="#AF55C1" d="M97.468,59.765h-7.5l0.969-6.781h-0.125c-1.688,2.375-3.573,4.229-5.656,5.563s-4.208,2-6.375,2
			c-2.646,0-4.667-0.755-6.063-2.266s-2.094-3.63-2.094-6.359c0-1.021,0.323-3.063,0.969-6.125l3.813-18.031h7.563l-3.906,18.406
			c-0.438,2.333-0.656,3.729-0.656,4.188c0,1.25,0.313,2.24,0.938,2.969c0.625,0.729,1.563,1.094,2.813,1.094
			c1.438,0,2.911-0.531,4.422-1.594s2.849-2.495,4.016-4.297c1.167-1.802,1.938-3.599,2.313-5.391l3.281-15.375h7.563l-4.594,21.5
			C98.343,53.14,97.78,56.64,97.468,59.765z"/>
		<path fill="#6F42C1" d="M129.999,35.046c-1.271-0.667-2.5-1-3.688-1c-2.167,0-4.141,1.094-5.922,3.281s-3.058,5.104-3.828,8.75
			l-2.906,13.688h-7.563l4.438-20.813c1.063-5.188,1.688-8.917,1.875-11.188h7.438c-0.208,2.021-0.5,4.271-0.875,6.75h0.125
			c1.313-2.375,2.692-4.224,4.141-5.547c1.448-1.323,3.141-1.984,5.078-1.984c0.792,0,1.844,0.156,3.156,0.469L129.999,35.046z"/>
		<path fill="#AF55C1" d="M163.343,38.89c0,3.896-0.854,7.552-2.563,10.969c-1.708,3.417-4.047,6.052-7.016,7.906
			c-2.969,1.854-6.297,2.781-9.984,2.781c-2.125,0-4.146-0.302-6.063-0.906l-3.156,14.906h-7.594l7.75-36.563
			c0.25-1.083,0.516-2.719,0.797-4.906s0.453-3.958,0.516-5.313h7.469c0,0.542-0.083,1.505-0.25,2.891
			c-0.167,1.386-0.313,2.453-0.438,3.203h0.125c2.854-4.583,6.479-6.875,10.875-6.875c3.021,0,5.364,1.063,7.031,3.188
			S163.343,35.203,163.343,38.89z M155.78,39.578c0-2.208-0.427-3.864-1.281-4.969c-0.854-1.104-2.073-1.656-3.656-1.656
			c-1.458,0-2.864,0.531-4.219,1.594s-2.578,2.646-3.672,4.75c-1.094,2.104-1.87,4.25-2.328,6.438l-1.813,8.313
			c0.438,0.167,1.198,0.349,2.281,0.547c1.083,0.198,2.042,0.297,2.875,0.297c2.229,0,4.245-0.698,6.047-2.094
			c1.802-1.396,3.214-3.286,4.234-5.672C155.27,44.739,155.78,42.224,155.78,39.578z"/>
		<path fill="#6F42C1" d="M175.343,60.296c-2.313,0-4.073-0.573-5.281-1.719c-1.208-1.146-1.813-2.771-1.813-4.875
			c0-1.396,0.396-3.911,1.188-7.547c0.792-3.635,3.188-14.891,7.188-33.766h7.594l-7.563,35.531
			c-0.438,2.083-0.656,3.427-0.656,4.031c0,1.583,0.906,2.375,2.719,2.375c1.063,0,2.011-0.167,2.844-0.5l-1.188,5.75
			C178.77,60.057,177.093,60.296,175.343,60.296z"/>
		<path fill="#AF55C1" d="M215.343,35.64c0,3.854-1.792,6.693-5.375,8.516c-3.583,1.823-9.021,2.776-16.313,2.859l-0.063,0.344
			v0.625c0,2.167,0.646,3.849,1.938,5.047c1.292,1.198,3.094,1.797,5.406,1.797c1.583,0,3.276-0.286,5.078-0.859
			c1.802-0.573,3.453-1.307,4.953-2.203l-1.25,6.219c-3.146,1.708-6.614,2.563-10.406,2.563c-4.146,0-7.38-1.156-9.703-3.469
			s-3.484-5.573-3.484-9.781c0-3.625,0.792-7.016,2.375-10.172s3.792-5.635,6.625-7.438c2.833-1.802,5.938-2.703,9.313-2.703
			c3.354,0,6.011,0.792,7.969,2.375C214.363,30.942,215.343,33.036,215.343,35.64z M208.03,35.828c0-1.042-0.38-1.87-1.141-2.484
			c-0.761-0.614-1.808-0.922-3.141-0.922c-2.208,0-4.208,0.906-6,2.719s-2.969,4.042-3.531,6.688
			C203.426,41.828,208.03,39.828,208.03,35.828z"/>
		<path fill="#6F42C1" d="M255.124,27.234c0,3.25-0.761,6.109-2.281,8.578s-3.729,4.38-6.625,5.734
			c-2.896,1.354-6.354,2.031-10.375,2.031h-6.563l-3.406,16.188h-7.781l9.5-44.813h13.5c4.375,0,7.808,1.083,10.297,3.25
			C253.879,20.37,255.124,23.38,255.124,27.234z M247.03,27.796c0-2-0.677-3.599-2.031-4.797c-1.354-1.198-3.323-1.797-5.906-1.797
			h-5.031l-3.438,16.188h5.469c3.417,0,6.094-0.844,8.031-2.531S247.03,30.817,247.03,27.796z"/>
		<path fill="#AF55C1" d="M283.968,59.765h-7.656c0-0.521,0.063-1.474,0.188-2.859c0.125-1.385,0.25-2.453,0.375-3.203h-0.125
			c-1.313,1.917-2.442,3.308-3.391,4.172c-0.948,0.865-1.974,1.526-3.078,1.984s-2.354,0.688-3.75,0.688
			c-3.042,0-5.406-1.073-7.094-3.219c-1.688-2.146-2.531-5.114-2.531-8.906c0-3.875,0.911-7.563,2.734-11.063
			s4.261-6.104,7.313-7.813c3.052-1.708,6.609-2.563,10.672-2.563c3.354,0,7.344,0.5,11.969,1.5l-4.406,20.875
			c-0.313,1.479-0.594,3.297-0.844,5.453S283.968,58.62,283.968,59.765z M281.093,33.109c-1.292-0.313-2.719-0.469-4.281-0.469
			c-2.375,0-4.469,0.62-6.281,1.859c-1.813,1.24-3.271,3.12-4.375,5.641c-1.104,2.521-1.656,5.156-1.656,7.906
			c0,2.083,0.401,3.693,1.203,4.828c0.802,1.136,1.974,1.703,3.516,1.703c2.25,0,4.276-1.177,6.078-3.531
			c1.802-2.354,3.12-5.469,3.953-9.344L281.093,33.109z"/>
		<path fill="#6F42C1" d="M300.874,60.296c-2.313,0-4.073-0.573-5.281-1.719c-1.208-1.146-1.813-2.771-1.813-4.875
			c0-1.396,0.396-3.911,1.188-7.547c0.792-3.635,3.188-14.891,7.188-33.766h7.594l-7.563,35.531
			c-0.438,2.083-0.656,3.427-0.656,4.031c0,1.583,0.906,2.375,2.719,2.375c1.063,0,2.011-0.167,2.844-0.5l-1.188,5.75
			C304.301,60.057,302.624,60.296,300.874,60.296z"/>
		<path fill="#AF55C1" d="M340.874,35.64c0,3.854-1.792,6.693-5.375,8.516c-3.583,1.823-9.021,2.776-16.313,2.859l-0.063,0.344
			v0.625c0,2.167,0.646,3.849,1.938,5.047c1.292,1.198,3.094,1.797,5.406,1.797c1.583,0,3.276-0.286,5.078-0.859
			c1.802-0.573,3.453-1.307,4.953-2.203l-1.25,6.219c-3.146,1.708-6.614,2.563-10.406,2.563c-4.146,0-7.38-1.156-9.703-3.469
			s-3.484-5.573-3.484-9.781c0-3.625,0.792-7.016,2.375-10.172s3.792-5.635,6.625-7.438c2.833-1.802,5.938-2.703,9.313-2.703
			c3.354,0,6.011,0.792,7.969,2.375C339.895,30.942,340.874,33.036,340.874,35.64z M333.562,35.828c0-1.042-0.38-1.87-1.141-2.484
			c-0.761-0.614-1.808-0.922-3.141-0.922c-2.208,0-4.208,0.906-6,2.719s-2.969,4.042-3.531,6.688
			C328.957,41.828,333.562,39.828,333.562,35.828z"/>
		<path fill="#6F42C1" d="M364.624,33.578h-7.781l-3.063,14.469c-0.375,1.813-0.563,3.031-0.563,3.656
			c0,0.958,0.219,1.651,0.656,2.078c0.438,0.427,1.156,0.641,2.156,0.641c0.958,0,2.417-0.375,4.375-1.125l-1.25,5.906
			c-2.083,0.813-4.146,1.219-6.188,1.219c-4.938,0-7.406-2.406-7.406-7.219c0-1.208,0.219-2.792,0.656-4.75l3.125-14.875h-5.125
			l1.375-5.813h4.969l1.656-7.656l7.938-2.094l-2.031,9.75h7.844L364.624,33.578z"/>
		<path fill="#AF55C1" d="M386.968,33.578h-7.781l-3.063,14.469c-0.375,1.813-0.563,3.031-0.563,3.656
			c0,0.958,0.219,1.651,0.656,2.078c0.438,0.427,1.156,0.641,2.156,0.641c0.958,0,2.417-0.375,4.375-1.125l-1.25,5.906
			c-2.083,0.813-4.146,1.219-6.188,1.219c-4.938,0-7.406-2.406-7.406-7.219c0-1.208,0.219-2.792,0.656-4.75l3.125-14.875h-5.125
			l1.375-5.813h4.969l1.656-7.656l7.938-2.094l-2.031,9.75h7.844L386.968,33.578z"/>
		<path fill="#6F42C1" d="M417.78,35.64c0,3.854-1.792,6.693-5.375,8.516c-3.583,1.823-9.021,2.776-16.313,2.859l-0.063,0.344v0.625
			c0,2.167,0.646,3.849,1.938,5.047c1.292,1.198,3.094,1.797,5.406,1.797c1.583,0,3.276-0.286,5.078-0.859
			c1.802-0.573,3.453-1.307,4.953-2.203l-1.25,6.219c-3.146,1.708-6.614,2.563-10.406,2.563c-4.146,0-7.38-1.156-9.703-3.469
			s-3.484-5.573-3.484-9.781c0-3.625,0.792-7.016,2.375-10.172s3.792-5.635,6.625-7.438c2.833-1.802,5.938-2.703,9.313-2.703
			c3.354,0,6.011,0.792,7.969,2.375C416.801,30.942,417.78,33.036,417.78,35.64z M410.468,35.828c0-1.042-0.38-1.87-1.141-2.484
			c-0.761-0.614-1.808-0.922-3.141-0.922c-2.208,0-4.208,0.906-6,2.719s-2.969,4.042-3.531,6.688
			C405.863,41.828,410.468,39.828,410.468,35.828z"/>
	</g>
	<g>
		<path fill="#E5DCB7" d="M462.63,7.101c-21.207,0-38.399,14.737-38.399,32.913c0,2.274,0.269,4.495,0.783,6.639
			c3.795,6.53,6.421,2.409,18.417-3.59c12.217-6.11,0,8.533-4.267,17.067c-1.313,2.624-0.603,4.845,1.194,6.665
			c6.284,3.849,13.96,6.135,22.271,6.135c21.208,0,38.4-14.735,38.4-32.915C501.031,21.837,483.838,7.101,462.63,7.101L462.63,7.101
			z M468.708,59.254c-0.843,2.872-5.248,4.105-9.841,2.754c-4.594-1.349-7.633-4.766-6.791-7.64
			c0.843-2.872,5.248-4.104,9.842-2.752C466.511,52.963,469.551,56.38,468.708,59.254L468.708,59.254z"/>
		<circle fill="#AF55C1" cx="445.564" cy="23.862" r="6.4"/>
		<circle fill="#6F42C1" cx="466.898" cy="19.595" r="6.4"/>
		<circle fill="#AB47BC" cx="486.097" cy="32.395" r="6.4"/>
		<circle fill="#DF78EF" cx="483.964" cy="51.595" r="6.4"/>
	</g>
</g>
<g>
</g>
<g>
</g>
<g>
</g>
<g>
</g>
<g>
</g>
<g>
</g>
<g>
</g>
<g>
</g>
<g>
</g>
<g>
</g>
<g>
</g>
<g>
</g>
<g>
</g>
<g>
</g>
<g>
</g>
</svg>
